# xmcd
#
# Track frame offsets:
#	150
#	14634
#	25495
#	44931
#	59183
#	71744
#	88042
#	100888
#	113214
#	128000
#	138940
#	155075
#
# Disc length: 2302 seconds
# Revision: 0
# Processed by: cddbd v1.5.2PL0 Copyright (c) Steve Scherf et al.
# Submitted via: dBpowerAMP V12.0
#
DISCID=b808fc0c
DTITLE=Carpenter and May - Carpenter and May
DYEAR=2010
DGENRE=Folk
TTITLE0=We Can Work It Out
TTITLE1=Cherokee Shuffle
TTITLE2=Isle of Inishmore - Dance With Me
TTITLE3=If You're Ever In Oklahoma
TTITLE4=Lady Be Good
TTITLE5=What a Wonderful World
TTITLE6=Whiskey Before Breakfast
TTITLE7=Blue and Lonesome
TTITLE8=First Day In Town
TTITLE9=Miss the Mississippi
TTITLE10=Soldier's Joy - Fisher's Hornpipe
TTITLE11=Leaving JP
EXTD=
EXTT0=
EXTT1=
EXTT2=
EXTT3=
EXTT4=
EXTT5=
EXTT6=
EXTT7=
EXTT8=
EXTT9=
EXTT10=
EXTT11=
PLAYORDER=
